# xmcd CD database file
# Copyright (C) 1997 Ti Kan
# 
# Track frame offsets:
#     177
#     10315
#     22685
#     36082
#     47130
#     60660
#     73002
#     87680
#     98955
#     118947
#     133487
#     144537
# 
# Disc length: 2138 seconds
# 
# Revision: 1
# Processed by: cddbd v1.4b41PL1 Copyright (c) Steve Scherf et al.
# Submitted via: DiscPlay 4.0.4
# 
DISCID=af08580c
DTITLE=John Lee Hooker - On Campus
DYEAR=1900
DGENRE=
TTITLE0=I'm Leaving
TTITLE1=Love Is A Burning Thing
TTITLE2=Birmingham Blues
TTITLE3=I Want To Shout
TTITLE4=Don't Look Back
TTITLE5=I Want To Hug You
TTITLE6=Poor Me
TTITLE7=I Want To Ramble
TTITLE8=Half A Stranger
TTITLE9=My Grinding Mill
TTITLE10=Bottle Up And Go
TTITLE11=One Way Ticket
EXTD=
EXTT0=
EXTT1=
EXTT2=
EXTT3=
EXTT4=
EXTT5=
EXTT6=
EXTT7=
EXTT8=
EXTT9=
EXTT10=
EXTT11=
PLAYORDER=
